:FULLY-SPECIFIED
:FORCE-ALL-JOINTS-BE-3DOF
:DEGREES
476
root 3.58739 16.218 -7.06552 3.17806 60.0857 -9.7866
lfemur -41.8075 2.34969 -20.7691
ltibia 51.694 0 0
lfoot -21.3503 -3.27336 0
ltoes 15.493 0 0
rfemur -21.8131 1.40374 11.7281
rtibia 55.5613 0 0
rfoot 24.3801 -0.43467 0
rtoes -34.6951 0 0
lowerback 1.84644 -0.110589 2.70598
upperback -0.573508 -0.107458 1.71205
thorax -1.61139 -0.061522 0.256782
lowerneck -8.66565 -6.50853 0.872603
upperneck 4.69738 -8.85759 0.901249
head 3.06997 -4.34472 -0.347327
lclavicle -1.09797e-14 3.53322e-15 0
lhumerus -47.984 -27.1299 109.076
lradius 53.7585 0 0
lwrist 2.77454 0 0
lhand -11.502 -7.59535 0
lfingers 7.12502 0 0
lthumb 14.4989 21.3769 0
rclavicle -1.09797e-14 3.53322e-15 0
rhumerus -52.244 8.85581 -85.5739
rradius 69.5797 0 0
rwrist 16.3292 0 0
rhand -22.5984 -26.2551 0
rfingers 7.12502 0 0
rthumb 3.81949 -775.845 0
477
root 3.66088 16.2309 -7.01348 3.07485 61.2729 -9.60126
lfemur -41.0852 1.36952 -20.863
ltibia 51.4083 0 0
lfoot -21.4658 -3.41475 0
ltoes 15.602 0 0
rfemur -23.5044 1.60301 11.6384
rtibia 56.5333 0 0
rfoot 23.6899 0.1119 0
rtoes -33.7836 0 0
lowerback 2.00117 -0.128063 2.51417
upperback -0.537492 -0.134637 1.67853
thorax -1.66043 -0.0734925 0.33164
lowerneck -8.67949 -6.64264 0.755624
upperneck 4.84182 -9.02918 0.938143
head 3.13242 -4.42864 -0.330943
lclavicle -1.01196e-14 2.47517e-15 0
lhumerus -48.0323 -27.3936 109.379
lradius 53.8695 0 0
lwrist 2.83124 0 0
lhand -10.5891 -7.19342 0
lfingers 7.12502 0 0
lthumb 15.3757 21.6858 0
rclavicle -1.01196e-14 2.47517e-15 0
rhumerus -51.8265 10.0198 -86.1223
rradius 70.3347 0 0
rwrist 16.8503 0 0
rhand -21.744 -25.8283 0
rfingers 7.12502 0 0
rthumb 4.64351 -775.384 0
478
root 3.73437 16.2438 -6.96144 2.97165 62.4601 -9.41592
lfemur -40.3629 0.389348 -20.957
ltibia 51.1227 0 0
lfoot -21.5813 -3.55614 0
ltoes 15.7109 0 0
rfemur -25.1956 1.80228 11.5487
rtibia 57.5052 0 0
rfoot 22.9997 0.65847 0
rtoes -32.8722 0 0
lowerback 2.1559 -0.145537 2.32235
upperback -0.501476 -0.161816 1.64501
thorax -1.70947 -0.0854629 0.406499
lowerneck -8.69332 -6.77675 0.638644
upperneck 4.98625 -9.20077 0.975037
head 3.19488 -4.51256 -0.31456
lclavicle -9.25953e-15 1.41712e-15 0
lhumerus -48.0806 -27.6572 109.683
lradius 53.9804 0 0
lwrist 2.88794 0 0
lhand -9.67627 -6.7915 0
lfingers 7.12502 0 0
lthumb 16.2525 21.9947 0
rclavicle -9.25953e-15 1.41712e-15 0
rhumerus -51.4089 11.1838 -86.6707
rradius 71.0897 0 0
rwrist 17.3715 0 0
rhand -20.8896 -25.4016 0
rfingers 7.12502 0 0
rthumb 5.46753 -774.923 0
479
root 3.80787 16.2567 -6.90941 2.86844 63.6474 -9.23058
lfemur -39.6407 -0.590823 -21.0509
ltibia 50.8371 0 0
lfoot -21.6968 -3.69753 0
ltoes 15.8199 0 0
rfemur -26.8869 2.00156 11.4591
rtibia 58.4772 0 0
rfoot 22.3096 1.20504 0
rtoes -31.9608 0 0
lowerback 2.31063 -0.163011 2.13054
upperback -0.465461 -0.188995 1.61149
thorax -1.75851 -0.0974334 0.481357
lowerneck -8.70716 -6.91086 0.521664
upperneck 5.13069 -9.37236 1.01193
head 3.25733 -4.59648 -0.298176
lclavicle -8.39946e-15 3.59071e-16 0
lhumerus -48.1288 -27.9209 109.986
lradius 54.0913 0 0
lwrist 2.94463 0 0
lhand -8.76341 -6.38957 0
lfingers 7.12502 0 0
lthumb 17.1292 22.3036 0
rclavicle -8.39946e-15 3.59071e-16 0
rhumerus -50.9913 12.3478 -87.2192
rradius 71.8447 0 0
rwrist 17.8926 0 0
rhand -20.0352 -24.9749 0
rfingers 7.12502 0 0
rthumb 6.29156 -774.462 0
480
root 3.88136 16.2696 -6.85737 2.76523 64.8346 -9.04524
lfemur -38.9184 -1.57099 -21.1448
ltibia 50.5514 0 0
lfoot -21.8123 -3.83892 0
ltoes 15.9289 0 0
rfemur -28.5781 2.20083 11.3694
rtibia 59.4492 0 0
rfoot 21.6194 1.75161 0
rtoes -31.0493 0 0
lowerback 2.46536 -0.180485 1.93873
upperback -0.429445 -0.216173 1.57797
thorax -1.80755 -0.109404 0.556216
lowerneck -8.721 -7.04497 0.404685
upperneck 5.27513 -9.54395 1.04883
head 3.31978 -4.68039 -0.281793
lclavicle -7.5394e-15 -6.98977e-16 0
lhumerus -48.1771 -28.1845 110.29
lradius 54.2023 0 0
lwrist 3.00133 0 0
lhand -7.85055 -5.98765 0
lfingers 7.12502 0 0
lthumb 18.006 22.6125 0
rclavicle -7.5394e-15 -6.98977e-16 0
rhumerus -50.5738 13.5118 -87.7676
rradius 72.5997 0 0
rwrist 18.4138 0 0
rhand -19.1808 -24.5481 0
rfingers 7.12502 0 0
rthumb 7.11558 -774.001 0
481
root 3.95486 16.2825 -6.80533 2.66202 66.0218 -8.8599
lfemur -38.1962 -2.55116 -21.2387
ltibia 50.2658 0 0
lfoot -21.9278 -3.98031 0
ltoes 16.0378 0 0
rfemur -30.2694 2.40011 11.2797
rtibia 60.4212 0 0
rfoot 20.9293 2.29818 0
rtoes -30.1379 0 0
lowerback 2.62009 -0.197959 1.74692
upperback -0.39343 -0.243352 1.54445
thorax -1.85659 -0.121374 0.631074
lowerneck -8.73483 -7.17908 0.287705
upperneck 5.41956 -9.71554 1.08572
head 3.38224 -4.76431 -0.265409
lclavicle -6.67933e-15 -1.75703e-15 0
lhumerus -48.2253 -28.4482 110.593
lradius 54.3132 0 0
lwrist 3.05802 0 0
lhand -6.93769 -5.58572 0
lfingers 7.12502 0 0
lthumb 18.8828 22.9214 0
rclavicle -6.67933e-15 -1.75703e-15 0
rhumerus -50.1562 14.6758 -88.316
rradius 73.3547 0 0
rwrist 18.9349 0 0
rhand -18.3264 -24.1214 0
rfingers 7.12502 0 0
rthumb 7.93961 -773.54 0
482
root 4.02835 16.2955 -6.75329 2.55882 67.209 -8.67457
lfemur -37.4739 -3.53134 -21.3326
ltibia 49.9801 0 0
lfoot -22.0432 -4.12169 0
ltoes 16.1468 0 0
rfemur -31.9607 2.59938 11.1901
rtibia 61.3932 0 0
rfoot 20.2391 2.84475 0
rtoes -29.2265 0 0
lowerback 2.77482 -0.215433 1.55511
upperback -0.357414 -0.270531 1.51092
thorax -1.90562 -0.133345 0.705933
lowerneck -8.74867 -7.3132 0.170725
upperneck 5.564 -9.88714 1.12261
head 3.44469 -4.84823 -0.249025
lclavicle -5.81927e-15 -2.81507e-15 0
lhumerus -48.2736 -28.7118 110.897
lradius 54.4241 0 0
lwrist 3.11472 0 0
lhand -6.02483 -5.1838 0
lfingers 7.12502 0 0
lthumb 19.7596 23.2304 0
rclavicle -5.81927e-15 -2.81507e-15 0
rhumerus -49.7387 15.8398 -88.8645
rradius 74.1098 0 0
rwrist 19.4561 0 0
rhand -17.472 -23.6947 0
rfingers 7.12502 0 0
rthumb 8.76363 -773.079 0
483
root 4.10185 16.3084 -6.70125 2.45561 68.3962 -8.48923
lfemur -36.7517 -4.51151 -21.4265
ltibia 49.6945 0 0
lfoot -22.1587 -4.26308 0
ltoes 16.2557 0 0
rfemur -33.6519 2.79866 11.1004
rtibia 62.3652 0 0
rfoot 19.549 3.39132 0
rtoes -28.3151 0 0
lowerback 2.92955 -0.232907 1.3633
upperback -0.321399 -0.29771 1.4774
thorax -1.95466 -0.145315 0.780791
lowerneck -8.7625 -7.44731 0.0537455
upperneck 5.70843 -10.0587 1.15951
head 3.50715 -4.93215 -0.232642
lclavicle -4.9592e-15 -3.87312e-15 0
lhumerus -48.3218 -28.9755 111.2
lradius 54.535 0 0
lwrist 3.17141 0 0
lhand -5.11197 -4.78187 0
lfingers 7.12502 0 0
lthumb 20.6364 23.5393 0
rclavicle -4.9592e-15 -3.87312e-15 0
rhumerus -49.3211 17.0037 -89.4129
rradius 74.8648 0 0
rwrist 19.9772 0 0
rhand -16.6176 -23.268 0
rfingers 7.12502 0 0
rthumb 9.58766 -772.618 0
